<?xml version="1.0" standalone="no"?>
<!DOCTYPE svg PUBLIC "-//W3C//DTD SVG 20010904//EN"
 "http://www.w3.org/TR/2001/REC-SVG-20010904/DTD/svg10.dtd">
<svg version="1.0" xmlns="http://www.w3.org/2000/svg"
 width="198.000000pt" height="198.000000pt" viewBox="0 0 198.000000 198.000000"
 preserveAspectRatio="xMidYMid meet">
<metadata>
Created by potrace 1.11, written by Peter Selinger 2001-2013
</metadata>
<g transform="translate(0.000000,198.000000) scale(0.100000,-0.100000)"
fill="#000000" stroke="none">
<path d="M639 1727 c-9 -20 -4 -38 36 -116 l46 -93 -3 -236 -4 -237 -188 -350
c-156 -291 -189 -358 -193 -400 -5 -59 18 -104 69 -135 32 -19 52 -20 588 -20
539 0 556 1 588 20 41 25 76 99 69 145 -3 17 -91 194 -196 392 l-191 360 0
162 c0 168 -7 201 -40 201 -34 0 -40 -33 -40 -206 l0 -167 51 -96 c256 -478
339 -642 339 -669 0 -61 -6 -62 -329 -62 l-292 0 3 23 c3 20 10 23 67 27 45 4
67 10 74 22 19 29 -8 47 -76 50 l-62 3 -3 43 -3 42 43 0 c47 0 68 13 68 42 0
23 -30 38 -74 38 -35 0 -36 1 -36 40 l0 40 58 0 c47 0 63 4 78 21 30 34 9 53
-67 59 l-64 5 -3 43 -3 42 44 0 c48 0 71 17 65 47 -2 14 -15 19 -53 23 l-50 5
-3 43 -3 42 60 0 c77 0 108 24 79 63 -9 11 -31 17 -73 19 l-60 3 -5 40 c-4 28
-10 41 -23 43 -47 9 -47 7 -47 -444 l0 -424 -219 0 -220 0 -21 27 c-13 17 -19
35 -16 49 3 12 90 181 193 375 l188 354 5 230 5 230 222 5 c122 3 223 7 226
10 14 15 97 192 97 208 0 41 -11 42 -357 42 l-333 0 -11 -23z m585 -107 l-24
-50 -210 0 -210 0 -25 50 -25 50 259 0 259 0 -24 -50z"/>
</g>
</svg>
